# xmcd
#
# Track frame offsets:
#	150
#	28933
#	97859
#	130903
#	163569
#	190351
#	227218
#	258988
#	281323
#	303872
#
# Disc length: 4381 seconds
#
# Revision: 1
# Processed by: cddbd v1.5.2PL0 Copyright (c) Steve Scherf et al.
# Submitted via: EasyCDDAExtractor 2010.6.0.0
#
DISCID=7e111b0a
DTITLE=Various Artist - Dance Classics - Pop Edition Vol. 8
DYEAR=2012
DGENRE=Pop
TTITLE0=Pointer Sisters - Goldmine (Shep Pettibone Extended Remix)
TTITLE1=Frankie Goes To Hollywood - Two Tribers (Keep The Peace Mix)
TTITLE2=Duran Duran - All She Wants Is (US Master Mix)
TTITLE3=Spandau Ballet - Gold (12 Inch Version)
TTITLE4=Miami Sound Machine - Conga (Extended Mix)
TTITLE5=John Adams - Strip This Heart
TTITLE6=Commodores - Nightshift (Extended Version)
TTITLE7=Talking Heads - And She Was (Extended Mix)
TTITLE8=Charles and Eddie - Would I Lie To You (Funky Way Mix Extended)
TTITLE9=The Power Station - Get It On (Extended Version)
EXTD=
EXTT0=
EXTT1=
EXTT2=
EXTT3=
EXTT4=
EXTT5=
EXTT6=
EXTT7=
EXTT8=
EXTT9=
PLAYORDER=
